<svg width="169" height="13" viewBox="0 0 169 13" fill="none" xmlns="http://www.w3.org/2000/svg">
<path d="M2.16992 5.63636C2.16992 5.17045 2.28356 4.74574 2.51083 4.36222C2.7381 3.97869 3.0435 3.6733 3.42702 3.44602C3.81055 3.21875 4.23526 3.10511 4.70117 3.10511C5.10458 3.10511 5.47674 3.19176 5.81765 3.36506C6.1614 3.53835 6.44549 3.77557 6.66992 4.0767C6.89435 4.375 7.03356 4.71307 7.08754 5.09091H6.05629C5.99947 4.7983 5.8418 4.55966 5.58327 4.375C5.32475 4.1875 5.03072 4.09375 4.70117 4.09375C4.41708 4.09375 4.15856 4.16335 3.9256 4.30256C3.69265 4.44176 3.50657 4.62784 3.36737 4.8608C3.22816 5.09375 3.15856 5.35227 3.15856 5.63636C3.15856 5.92045 3.22816 6.17898 3.36737 6.41193C3.50657 6.64489 3.69265 6.83097 3.9256 6.97017C4.15856 7.10937 4.41708 7.17898 4.70117 7.17898C5.03072 7.17898 5.30913 7.08665 5.5364 6.90199C5.76651 6.71449 5.9114 6.47443 5.97106 6.18182H7.00231C6.94833 6.55966 6.81623 6.89915 6.606 7.20028C6.39577 7.49858 6.12589 7.73437 5.79634 7.90767C5.46964 8.08097 5.10458 8.16761 4.70117 8.16761C4.23526 8.16761 3.81055 8.05398 3.42702 7.8267C3.0435 7.59943 2.7381 7.29403 2.51083 6.91051C2.28356 6.52699 2.16992 6.10227 2.16992 5.63636ZM4.65856 10.1364C4.03924 10.1364 3.45685 10.0199 2.9114 9.78693C2.36879 9.55398 1.89009 9.23153 1.47532 8.8196C1.06339 8.40483 0.739524 7.92614 0.503729 7.38352C0.270774 6.84091 0.155717 6.25852 0.158558 5.63636C0.161399 5.0142 0.279297 4.43182 0.512251 3.8892C0.748047 3.34659 1.07191 2.86932 1.48384 2.45739C1.89577 2.04261 2.37305 1.71875 2.91566 1.4858C3.45827 1.25284 4.03924 1.13636 4.65856 1.13636C5.28072 1.13636 5.8631 1.25284 6.40572 1.4858C6.95117 1.71875 7.42845 2.04261 7.83754 2.45739C8.24947 2.86932 8.57191 3.34659 8.80487 3.8892C9.03782 4.43182 9.15572 5.0142 9.15856 5.63636C9.1614 6.25852 9.04634 6.84091 8.81339 7.38352C8.58043 7.92614 8.25799 8.40483 7.84606 8.8196C7.43413 9.23153 6.95543 9.55398 6.40998 9.78693C5.86452 10.0199 5.28072 10.1364 4.65856 10.1364ZM4.65856 9.14773C5.14435 9.14773 5.60032 9.05682 6.02646 8.875C6.45259 8.69318 6.82617 8.44176 7.14719 8.12074C7.46822 7.79972 7.71964 7.42756 7.90146 7.00426C8.08327 6.57812 8.17276 6.12358 8.16992 5.64062C8.16708 5.15483 8.07475 4.69886 7.89293 4.27273C7.71112 3.84659 7.45969 3.47301 7.13867 3.15199C6.81765 2.83097 6.44549 2.57955 6.02219 2.39773C5.5989 2.21591 5.14435 2.125 4.65856 2.125C4.1756 2.125 3.72248 2.21591 3.29918 2.39773C2.87589 2.57955 2.50373 2.83239 2.18271 3.15625C1.86168 3.47727 1.60884 3.85085 1.42418 4.27699C1.24237 4.70028 1.15004 5.15483 1.14719 5.64062C1.14435 6.12074 1.23384 6.57386 1.41566 7C1.59748 7.4233 1.8489 7.79545 2.16992 8.11648C2.49379 8.4375 2.86737 8.69034 3.29066 8.875C3.7168 9.05682 4.17276 9.14773 4.65856 9.14773ZM14.4288 10V9.23295L17.3095 6.07955C17.6475 5.71023 17.926 5.3892 18.1447 5.11648C18.3635 4.84091 18.5254 4.58239 18.6305 4.34091C18.7385 4.09659 18.7924 3.84091 18.7924 3.57386C18.7924 3.26705 18.7186 3.00142 18.5708 2.77699C18.426 2.55256 18.2271 2.37926 17.9743 2.2571C17.7214 2.13494 17.4373 2.07386 17.122 2.07386C16.7868 2.07386 16.4941 2.14347 16.2441 2.28267C15.997 2.41903 15.8052 2.6108 15.6689 2.85795C15.5353 3.10511 15.4686 3.39489 15.4686 3.72727H14.4629C14.4629 3.21591 14.5808 2.76705 14.8166 2.38068C15.0524 1.99432 15.3734 1.69318 15.7797 1.47727C16.1887 1.26136 16.6475 1.15341 17.1561 1.15341C17.6674 1.15341 18.1206 1.26136 18.5154 1.47727C18.9103 1.69318 19.22 1.98437 19.4444 2.35085C19.6689 2.71733 19.7811 3.125 19.7811 3.57386C19.7811 3.89489 19.7228 4.20881 19.6064 4.51562C19.4927 4.8196 19.2939 5.15909 19.0098 5.53409C18.7285 5.90625 18.3379 6.3608 17.8379 6.89773L15.8777 8.99432V9.0625H19.9345V10H14.4288ZM24.541 10.1193C23.899 10.1193 23.3521 9.9446 22.9004 9.59517C22.4487 9.2429 22.1035 8.73295 21.8649 8.06534C21.6262 7.39489 21.5069 6.58523 21.5069 5.63636C21.5069 4.69318 21.6262 3.88778 21.8649 3.22017C22.1064 2.54972 22.4529 2.03835 22.9047 1.68608C23.3592 1.33097 23.9047 1.15341 24.541 1.15341C25.1774 1.15341 25.7214 1.33097 26.1731 1.68608C26.6277 2.03835 26.9743 2.54972 27.2129 3.22017C27.4544 3.88778 27.5751 4.69318 27.5751 5.63636C27.5751 6.58523 27.4558 7.39489 27.2172 8.06534C26.9785 8.73295 26.6333 9.2429 26.1816 9.59517C25.7299 9.9446 25.1831 10.1193 24.541 10.1193ZM24.541 9.18182C25.1774 9.18182 25.6717 8.875 26.024 8.26136C26.3762 7.64773 26.5524 6.77273 26.5524 5.63636C26.5524 4.88068 26.4714 4.23722 26.3095 3.70597C26.1504 3.17472 25.9203 2.76989 25.6191 2.49148C25.3208 2.21307 24.9615 2.07386 24.541 2.07386C23.9103 2.07386 23.4174 2.38494 23.0623 3.0071C22.7072 3.62642 22.5297 4.50284 22.5297 5.63636C22.5297 6.39205 22.6092 7.03409 22.7683 7.5625C22.9274 8.09091 23.1561 8.4929 23.4544 8.76847C23.7555 9.04403 24.1177 9.18182 24.541 9.18182ZM29.1944 10V9.23295L32.0751 6.07955C32.4132 5.71023 32.6916 5.3892 32.9103 5.11648C33.1291 4.84091 33.291 4.58239 33.3961 4.34091C33.5041 4.09659 33.5581 3.84091 33.5581 3.57386C33.5581 3.26705 33.4842 3.00142 33.3365 2.77699C33.1916 2.55256 32.9927 2.37926 32.7399 2.2571C32.487 2.13494 32.2029 2.07386 31.8876 2.07386C31.5524 2.07386 31.2598 2.14347 31.0098 2.28267C30.7626 2.41903 30.5708 2.6108 30.4345 2.85795C30.301 3.10511 30.2342 3.39489 30.2342 3.72727H29.2285C29.2285 3.21591 29.3464 2.76705 29.5822 2.38068C29.818 1.99432 30.139 1.69318 30.5453 1.47727C30.9544 1.26136 31.4132 1.15341 31.9217 1.15341C32.4331 1.15341 32.8862 1.26136 33.2811 1.47727C33.676 1.69318 33.9856 1.98437 34.21 2.35085C34.4345 2.71733 34.5467 3.125 34.5467 3.57386C34.5467 3.89489 34.4885 4.20881 34.372 4.51562C34.2583 4.8196 34.0595 5.15909 33.7754 5.53409C33.4941 5.90625 33.1035 6.3608 32.6035 6.89773L30.6433 8.99432V9.0625H34.7001V10H29.1944ZM39.2555 1.27273V10H38.1987V2.80682H38.1305C38.0907 2.88636 37.9885 2.97727 37.8237 3.07955C37.6589 3.17898 37.4458 3.26705 37.1845 3.34375C36.9231 3.41761 36.6248 3.45455 36.2896 3.45455V2.56818C36.6277 2.56818 36.9203 2.5071 37.1674 2.38494C37.4146 2.26278 37.6206 2.11932 37.7853 1.95455C37.9529 1.78977 38.0794 1.64062 38.1646 1.5071C38.2527 1.37358 38.3038 1.29545 38.318 1.27273H39.2555ZM52.3081 4H51.2512C51.1887 3.69602 51.0794 3.42898 50.9231 3.19886C50.7697 2.96875 50.5822 2.77557 50.3606 2.61932C50.1419 2.46023 49.899 2.34091 49.6319 2.26136C49.3649 2.18182 49.0865 2.14205 48.7967 2.14205C48.2683 2.14205 47.7896 2.27557 47.3606 2.54261C46.9345 2.80966 46.595 3.20312 46.3422 3.72301C46.0922 4.2429 45.9672 4.88068 45.9672 5.63636C45.9672 6.39205 46.0922 7.02983 46.3422 7.54972C46.595 8.0696 46.9345 8.46307 47.3606 8.73011C47.7896 8.99716 48.2683 9.13068 48.7967 9.13068C49.0865 9.13068 49.3649 9.09091 49.6319 9.01136C49.899 8.93182 50.1419 8.81392 50.3606 8.65767C50.5822 8.49858 50.7697 8.30398 50.9231 8.07386C51.0794 7.84091 51.1887 7.57386 51.2512 7.27273H52.3081C52.2285 7.71875 52.0836 8.1179 51.8734 8.47017C51.6632 8.82244 51.4018 9.12216 51.0893 9.36932C50.7768 9.61364 50.426 9.79972 50.0368 9.92756C49.6504 10.0554 49.237 10.1193 48.7967 10.1193C48.0524 10.1193 47.3904 9.9375 46.8109 9.57386C46.2314 9.21023 45.7754 8.69318 45.443 8.02273C45.1106 7.35227 44.9444 6.55682 44.9444 5.63636C44.9444 4.71591 45.1106 3.92045 45.443 3.25C45.7754 2.57955 46.2314 2.0625 46.8109 1.69886C47.3904 1.33523 48.0524 1.15341 48.7967 1.15341C49.237 1.15341 49.6504 1.21733 50.0368 1.34517C50.426 1.47301 50.7768 1.66051 51.0893 1.90767C51.4018 2.15199 51.6632 2.45028 51.8734 2.80256C52.0836 3.15199 52.2285 3.55114 52.3081 4ZM56.351 10.1364C55.8056 10.1364 55.324 9.99858 54.9064 9.72301C54.4888 9.4446 54.1621 9.05256 53.9263 8.54688C53.6905 8.03835 53.5726 7.4375 53.5726 6.74432C53.5726 6.05682 53.6905 5.46023 53.9263 4.95455C54.1621 4.44886 54.4902 4.05824 54.9107 3.78267C55.3311 3.5071 55.8169 3.36932 56.3681 3.36932C56.7942 3.36932 57.1309 3.44034 57.378 3.58239C57.628 3.72159 57.8184 3.88068 57.949 4.05966C58.0826 4.2358 58.1863 4.38068 58.2601 4.49432H58.3453V3.45455H59.351V10H58.3794V8.99432H58.2601C58.1863 9.11364 58.0811 9.2642 57.9448 9.44602C57.8084 9.625 57.6138 9.78551 57.361 9.92756C57.1081 10.0668 56.7715 10.1364 56.351 10.1364ZM56.4874 9.23295C56.8908 9.23295 57.2317 9.12784 57.5101 8.91761C57.7885 8.70455 58.0002 8.41051 58.1451 8.03551C58.29 7.65767 58.3624 7.22159 58.3624 6.72727C58.3624 6.23864 58.2914 5.81108 58.1493 5.4446C58.0073 5.07528 57.7971 4.78835 57.5186 4.58381C57.2402 4.37642 56.8965 4.27273 56.4874 4.27273C56.0613 4.27273 55.7061 4.3821 55.4221 4.60085C55.1408 4.81676 54.9292 5.1108 54.7871 5.48295C54.6479 5.85227 54.5783 6.26705 54.5783 6.72727C54.5783 7.19318 54.6493 7.61648 54.7914 7.99716C54.9363 8.375 55.1493 8.67614 55.4306 8.90057C55.7147 9.12216 56.0669 9.23295 56.4874 9.23295ZM61.3326 10V3.45455H62.3042V4.44318H62.3723C62.4888 4.11932 62.7033 3.85653 63.0158 3.65483C63.3283 3.45312 63.682 3.35227 64.0769 3.35227C64.2587 3.35227 64.4178 3.37358 64.5542 3.41619C64.6905 3.45881 64.8098 3.51705 64.9121 3.59091L64.5712 4.44318C64.5002 4.40625 64.4164 4.37784 64.3198 4.35795C64.226 4.33523 64.1167 4.32386 63.9917 4.32386C63.6735 4.32386 63.3894 4.39062 63.1394 4.52415C62.8922 4.65767 62.6962 4.83949 62.5513 5.0696C62.4093 5.29972 62.3382 5.5625 62.3382 5.85795V10H61.3326ZM69.1948 3.45455V4.30682H65.8027V3.45455H69.1948ZM66.7914 1.88636H67.7971V8.125C67.7971 8.40909 67.8382 8.62216 67.9206 8.7642C68.0059 8.90341 68.1138 8.99716 68.2445 9.04545C68.378 9.09091 68.5186 9.11364 68.6664 9.11364C68.7772 9.11364 68.8681 9.10795 68.9391 9.09659C69.0101 9.08239 69.0669 9.07102 69.1096 9.0625L69.3141 9.96591C69.2459 9.99148 69.1507 10.017 69.0286 10.0426C68.9064 10.071 68.7516 10.0852 68.5641 10.0852C68.28 10.0852 68.0016 10.0241 67.7289 9.90199C67.459 9.77983 67.2346 9.59375 67.0556 9.34375C66.8794 9.09375 66.7914 8.77841 66.7914 8.39773V1.88636ZM73.2963 10.1364C72.7054 10.1364 72.187 9.99574 71.7409 9.71449C71.2978 9.43324 70.9512 9.03977 70.7012 8.53409C70.454 8.02841 70.3304 7.4375 70.3304 6.76136C70.3304 6.07955 70.454 5.48437 70.7012 4.97585C70.9512 4.46733 71.2978 4.07244 71.7409 3.79119C72.187 3.50994 72.7054 3.36932 73.2963 3.36932C73.8873 3.36932 74.4043 3.50994 74.8475 3.79119C75.2935 4.07244 75.6401 4.46733 75.8873 4.97585C76.1373 5.48437 76.2623 6.07955 76.2623 6.76136C76.2623 7.4375 76.1373 8.02841 75.8873 8.53409C75.6401 9.03977 75.2935 9.43324 74.8475 9.71449C74.4043 9.99574 73.8873 10.1364 73.2963 10.1364ZM73.2963 9.23295C73.7452 9.23295 74.1145 9.1179 74.4043 8.88778C74.6941 8.65767 74.9086 8.35511 75.0478 7.98011C75.187 7.60511 75.2566 7.19886 75.2566 6.76136C75.2566 6.32386 75.187 5.91619 75.0478 5.53835C74.9086 5.16051 74.6941 4.85511 74.4043 4.62216C74.1145 4.3892 73.7452 4.27273 73.2963 4.27273C72.8475 4.27273 72.4782 4.3892 72.1884 4.62216C71.8986 4.85511 71.6841 5.16051 71.5449 5.53835C71.4057 5.91619 71.3361 6.32386 71.3361 6.76136C71.3361 7.19886 71.4057 7.60511 71.5449 7.98011C71.6841 8.35511 71.8986 8.65767 72.1884 8.88778C72.4782 9.1179 72.8475 9.23295 73.2963 9.23295ZM72.8361 2.56818L73.8759 0.590909H75.052L73.7225 2.56818H72.8361ZM77.7974 10V3.45455H78.769V4.44318H78.8372C78.9537 4.11932 79.1681 3.85653 79.4806 3.65483C79.7931 3.45312 80.1468 3.35227 80.5417 3.35227C80.7235 3.35227 80.8826 3.37358 81.019 3.41619C81.1554 3.45881 81.2747 3.51705 81.377 3.59091L81.036 4.44318C80.965 4.40625 80.8812 4.37784 80.7846 4.35795C80.6909 4.33523 80.5815 4.32386 80.4565 4.32386C80.1383 4.32386 79.8542 4.39062 79.6042 4.52415C79.3571 4.65767 79.161 4.83949 79.0162 5.0696C78.8741 5.29972 78.8031 5.5625 78.8031 5.85795V10H77.7974ZM82.4029 10V3.45455H83.4086V10H82.4029ZM82.9142 2.36364C82.7182 2.36364 82.5492 2.29688 82.4071 2.16335C82.2679 2.02983 82.1983 1.86932 82.1983 1.68182C82.1983 1.49432 82.2679 1.33381 82.4071 1.20028C82.5492 1.06676 82.7182 1 82.9142 1C83.1103 1 83.2779 1.06676 83.4171 1.20028C83.5591 1.33381 83.6301 1.49432 83.6301 1.68182C83.6301 1.86932 83.5591 2.02983 83.4171 2.16335C83.2779 2.29688 83.1103 2.36364 82.9142 2.36364ZM87.9096 10.1364C87.3187 10.1364 86.8002 9.99574 86.3542 9.71449C85.911 9.43324 85.5645 9.03977 85.3145 8.53409C85.0673 8.02841 84.9437 7.4375 84.9437 6.76136C84.9437 6.07955 85.0673 5.48437 85.3145 4.97585C85.5645 4.46733 85.911 4.07244 86.3542 3.79119C86.8002 3.50994 87.3187 3.36932 87.9096 3.36932C88.5005 3.36932 89.0176 3.50994 89.4608 3.79119C89.9068 4.07244 90.2534 4.46733 90.5005 4.97585C90.7505 5.48437 90.8755 6.07955 90.8755 6.76136C90.8755 7.4375 90.7505 8.02841 90.5005 8.53409C90.2534 9.03977 89.9068 9.43324 89.4608 9.71449C89.0176 9.99574 88.5005 10.1364 87.9096 10.1364ZM87.9096 9.23295C88.3585 9.23295 88.7278 9.1179 89.0176 8.88778C89.3074 8.65767 89.5218 8.35511 89.661 7.98011C89.8002 7.60511 89.8699 7.19886 89.8699 6.76136C89.8699 6.32386 89.8002 5.91619 89.661 5.53835C89.5218 5.16051 89.3074 4.85511 89.0176 4.62216C88.7278 4.3892 88.3585 4.27273 87.9096 4.27273C87.4608 4.27273 87.0914 4.3892 86.8017 4.62216C86.5119 4.85511 86.2974 5.16051 86.1582 5.53835C86.019 5.91619 85.9494 6.32386 85.9494 6.76136C85.9494 7.19886 86.019 7.60511 86.1582 7.98011C86.2974 8.35511 86.5119 8.65767 86.8017 8.88778C87.0914 9.1179 87.4608 9.23295 87.9096 9.23295ZM98.6152 10H95.9221V1.27273H98.7346C99.5811 1.27273 100.306 1.44744 100.908 1.79688C101.51 2.14347 101.972 2.64205 102.293 3.29261C102.614 3.94034 102.774 4.71591 102.774 5.61932C102.774 6.52841 102.612 7.31108 102.289 7.96733C101.965 8.62074 101.493 9.12358 100.874 9.47585C100.254 9.82528 99.5016 10 98.6152 10ZM96.9789 9.0625H98.5471C99.2686 9.0625 99.8667 8.9233 100.341 8.64489C100.816 8.36648 101.169 7.97017 101.402 7.45597C101.635 6.94176 101.752 6.32955 101.752 5.61932C101.752 4.91477 101.637 4.30824 101.406 3.79972C101.176 3.28835 100.833 2.89631 100.375 2.62358C99.9178 2.34801 99.3482 2.21023 98.6664 2.21023H96.9789V9.0625ZM104.411 10V3.45455H105.416V10H104.411ZM104.922 2.36364C104.726 2.36364 104.557 2.29688 104.415 2.16335C104.276 2.02983 104.206 1.86932 104.206 1.68182C104.206 1.49432 104.276 1.33381 104.415 1.20028C104.557 1.06676 104.726 1 104.922 1C105.118 1 105.286 1.06676 105.425 1.20028C105.567 1.33381 105.638 1.49432 105.638 1.68182C105.638 1.86932 105.567 2.02983 105.425 2.16335C105.286 2.29688 105.118 2.36364 104.922 2.36364ZM112.611 3.45455L110.19 10H109.167L106.747 3.45455H107.838L109.645 8.67045H109.713L111.52 3.45455H112.611ZM116.175 10.1364C115.63 10.1364 115.148 9.99858 114.731 9.72301C114.313 9.4446 113.986 9.05256 113.751 8.54688C113.515 8.03835 113.397 7.4375 113.397 6.74432C113.397 6.05682 113.515 5.46023 113.751 4.95455C113.986 4.44886 114.314 4.05824 114.735 3.78267C115.155 3.5071 115.641 3.36932 116.192 3.36932C116.618 3.36932 116.955 3.44034 117.202 3.58239C117.452 3.72159 117.643 3.88068 117.773 4.05966C117.907 4.2358 118.01 4.38068 118.084 4.49432H118.17V3.45455H119.175V10H118.204V8.99432H118.084C118.01 9.11364 117.905 9.2642 117.769 9.44602C117.633 9.625 117.438 9.78551 117.185 9.92756C116.932 10.0668 116.596 10.1364 116.175 10.1364ZM116.312 9.23295C116.715 9.23295 117.056 9.12784 117.334 8.91761C117.613 8.70455 117.824 8.41051 117.969 8.03551C118.114 7.65767 118.187 7.22159 118.187 6.72727C118.187 6.23864 118.116 5.81108 117.974 5.4446C117.831 5.07528 117.621 4.78835 117.343 4.58381C117.064 4.37642 116.721 4.27273 116.312 4.27273C115.885 4.27273 115.53 4.3821 115.246 4.60085C114.965 4.81676 114.753 5.1108 114.611 5.48295C114.472 5.85227 114.403 6.26705 114.403 6.72727C114.403 7.19318 114.474 7.61648 114.616 7.99716C114.76 8.375 114.974 8.67614 115.255 8.90057C115.539 9.12216 115.891 9.23295 116.312 9.23295ZM125.026 1.27273L127.617 8.61932H127.719L130.31 1.27273H131.418L128.214 10H127.123L123.918 1.27273H125.026ZM134.503 10.1364C133.958 10.1364 133.476 9.99858 133.059 9.72301C132.641 9.4446 132.314 9.05256 132.079 8.54688C131.843 8.03835 131.725 7.4375 131.725 6.74432C131.725 6.05682 131.843 5.46023 132.079 4.95455C132.314 4.44886 132.643 4.05824 133.063 3.78267C133.483 3.5071 133.969 3.36932 134.52 3.36932C134.947 3.36932 135.283 3.44034 135.53 3.58239C135.78 3.72159 135.971 3.88068 136.101 4.05966C136.235 4.2358 136.339 4.38068 136.412 4.49432H136.498V3.45455H137.503V10H136.532V8.99432H136.412C136.339 9.11364 136.233 9.2642 136.097 9.44602C135.961 9.625 135.766 9.78551 135.513 9.92756C135.26 10.0668 134.924 10.1364 134.503 10.1364ZM134.64 9.23295C135.043 9.23295 135.384 9.12784 135.662 8.91761C135.941 8.70455 136.153 8.41051 136.297 8.03551C136.442 7.65767 136.515 7.22159 136.515 6.72727C136.515 6.23864 136.444 5.81108 136.302 5.4446C136.16 5.07528 135.949 4.78835 135.671 4.58381C135.393 4.37642 135.049 4.27273 134.64 4.27273C134.214 4.27273 133.858 4.3821 133.574 4.60085C133.293 4.81676 133.081 5.1108 132.939 5.48295C132.8 5.85227 132.731 6.26705 132.731 6.72727C132.731 7.19318 132.802 7.61648 132.944 7.99716C133.089 8.375 133.302 8.67614 133.583 8.90057C133.867 9.12216 134.219 9.23295 134.64 9.23295ZM139.485 1.27273H140.491V8.29545C140.491 8.61364 140.526 8.83665 140.597 8.96449C140.668 9.09233 140.814 9.15341 141.036 9.14773C141.155 9.14205 141.243 9.13352 141.3 9.12216C141.36 9.10795 141.414 9.09375 141.462 9.07955L141.667 9.94886C141.579 9.97443 141.468 9.99716 141.334 10.017C141.201 10.0398 141.062 10.0511 140.917 10.0511C140.439 10.0511 140.081 9.92045 139.843 9.65909C139.604 9.39773 139.485 9.03409 139.485 8.56818V1.27273ZM145.335 10.1364C144.704 10.1364 144.16 9.99716 143.703 9.71875C143.248 9.4375 142.897 9.04545 142.65 8.54261C142.406 8.03693 142.284 7.44886 142.284 6.77841C142.284 6.10795 142.406 5.51705 142.65 5.00568C142.897 4.49148 143.241 4.09091 143.681 3.80398C144.124 3.5142 144.642 3.36932 145.232 3.36932C145.573 3.36932 145.91 3.42614 146.242 3.53977C146.575 3.65341 146.877 3.83807 147.15 4.09375C147.423 4.34659 147.64 4.68182 147.802 5.09943C147.964 5.51705 148.045 6.03125 148.045 6.64205V7.06818H142.999V6.19886H147.022C147.022 5.82955 146.948 5.5 146.801 5.21023C146.656 4.92045 146.448 4.69176 146.178 4.52415C145.911 4.35653 145.596 4.27273 145.232 4.27273C144.832 4.27273 144.485 4.37216 144.193 4.57102C143.903 4.76705 143.68 5.02273 143.524 5.33807C143.367 5.65341 143.289 5.99148 143.289 6.35227V6.93182C143.289 7.42614 143.374 7.84517 143.545 8.18892C143.718 8.52983 143.958 8.78977 144.265 8.96875C144.572 9.14489 144.928 9.23295 145.335 9.23295C145.599 9.23295 145.838 9.19602 146.051 9.12216C146.267 9.04545 146.453 8.93182 146.609 8.78125C146.765 8.62784 146.886 8.4375 146.971 8.21023L147.943 8.48295C147.84 8.8125 147.669 9.10227 147.427 9.35227C147.186 9.59943 146.887 9.79261 146.532 9.93182C146.177 10.0682 145.778 10.1364 145.335 10.1364ZM150.58 6.0625V10H149.575V3.45455H150.546V4.47727H150.632C150.785 4.14489 151.018 3.87784 151.33 3.67614C151.643 3.47159 152.046 3.36932 152.541 3.36932C152.984 3.36932 153.372 3.46023 153.704 3.64205C154.036 3.82102 154.295 4.09375 154.48 4.46023C154.664 4.82386 154.757 5.28409 154.757 5.84091V10H153.751V5.90909C153.751 5.39489 153.617 4.99432 153.35 4.70739C153.083 4.41761 152.717 4.27273 152.251 4.27273C151.93 4.27273 151.643 4.34233 151.39 4.48153C151.14 4.62074 150.943 4.82386 150.798 5.09091C150.653 5.35795 150.58 5.68182 150.58 6.0625ZM159.253 10.1364C158.64 10.1364 158.111 9.99148 157.668 9.7017C157.225 9.41193 156.884 9.01278 156.645 8.50426C156.407 7.99574 156.287 7.41477 156.287 6.76136C156.287 6.09659 156.41 5.50994 156.654 5.00142C156.901 4.49006 157.245 4.09091 157.685 3.80398C158.128 3.5142 158.645 3.36932 159.236 3.36932C159.697 3.36932 160.111 3.45455 160.481 3.625C160.85 3.79545 161.153 4.03409 161.388 4.34091C161.624 4.64773 161.77 5.00568 161.827 5.41477H160.822C160.745 5.11648 160.574 4.85227 160.31 4.62216C160.049 4.3892 159.697 4.27273 159.253 4.27273C158.861 4.27273 158.518 4.375 158.222 4.57955C157.93 4.78125 157.701 5.06676 157.536 5.43608C157.374 5.80256 157.293 6.23295 157.293 6.72727C157.293 7.23295 157.373 7.6733 157.532 8.0483C157.694 8.4233 157.921 8.71449 158.214 8.92188C158.509 9.12926 158.856 9.23295 159.253 9.23295C159.515 9.23295 159.752 9.1875 159.965 9.09659C160.178 9.00568 160.358 8.875 160.506 8.70455C160.654 8.53409 160.759 8.32955 160.822 8.09091H161.827C161.77 8.47727 161.63 8.82528 161.405 9.13494C161.184 9.44176 160.89 9.68608 160.523 9.8679C160.16 10.0469 159.736 10.1364 159.253 10.1364ZM158.776 9.96591H159.611L159.543 10.3068C159.765 10.3409 159.968 10.4332 160.153 10.5838C160.337 10.7372 160.43 10.9801 160.43 11.3125C160.43 11.679 160.278 11.9773 159.974 12.2074C159.672 12.4403 159.228 12.5568 158.64 12.5568L158.606 11.892C158.87 11.892 159.089 11.8494 159.262 11.7642C159.438 11.6818 159.526 11.5426 159.526 11.3466C159.526 11.1506 159.454 11.017 159.309 10.946C159.164 10.875 158.93 10.8267 158.606 10.8011L158.776 9.96591ZM165.769 10.1364C165.224 10.1364 164.742 9.99858 164.324 9.72301C163.907 9.4446 163.58 9.05256 163.344 8.54688C163.108 8.03835 162.991 7.4375 162.991 6.74432C162.991 6.05682 163.108 5.46023 163.344 4.95455C163.58 4.44886 163.908 4.05824 164.329 3.78267C164.749 3.5071 165.235 3.36932 165.786 3.36932C166.212 3.36932 166.549 3.44034 166.796 3.58239C167.046 3.72159 167.236 3.88068 167.367 4.05966C167.501 4.2358 167.604 4.38068 167.678 4.49432H167.763V3.45455H168.769V10H167.797V8.99432H167.678C167.604 9.11364 167.499 9.2642 167.363 9.44602C167.226 9.625 167.032 9.78551 166.779 9.92756C166.526 10.0668 166.189 10.1364 165.769 10.1364ZM165.905 9.23295C166.309 9.23295 166.65 9.12784 166.928 8.91761C167.206 8.70455 167.418 8.41051 167.563 8.03551C167.708 7.65767 167.78 7.22159 167.78 6.72727C167.78 6.23864 167.709 5.81108 167.567 5.4446C167.425 5.07528 167.215 4.78835 166.937 4.58381C166.658 4.37642 166.314 4.27273 165.905 4.27273C165.479 4.27273 165.124 4.3821 164.84 4.60085C164.559 4.81676 164.347 5.1108 164.205 5.48295C164.066 5.85227 163.996 6.26705 163.996 6.72727C163.996 7.19318 164.067 7.61648 164.209 7.99716C164.354 8.375 164.567 8.67614 164.849 8.90057C165.133 9.12216 165.485 9.23295 165.905 9.23295Z" fill="white"/>
</svg>
