<svg width="74" height="58" viewBox="0 0 74 58" fill="none" xmlns="http://www.w3.org/2000/svg">
<g clip-path="url(#clip0_52_701)">
<path fill-rule="evenodd" clip-rule="evenodd" d="M1.94776 56.2893L1.74852 56.4029C1.57542 56.3852 1.47088 56.3648 1.45683 56.3418C1.44812 56.3275 3.77827 52.2025 4.1818 51.9075C4.51311 51.6652 4.75169 51.8449 4.97032 51.463C5.41769 50.6805 4.29645 50.3597 3.95559 50.9439C3.6639 51.4439 4.0531 51.3926 3.88758 51.901C3.74455 52.3402 2.35747 54.3661 2.01633 54.8933C1.67827 55.4158 1.42339 56.2324 0.939489 56.0829C0.933588 55.7728 1.64904 54.4303 1.72857 53.5635C1.86177 52.1141 0.972368 52.1436 1.90561 50.9803C2.80569 49.858 4.16634 48.5758 4.96273 47.3969C4.48023 46.8461 4.38525 47.2937 4.98015 46.2322L5.64643 46.3548C5.89794 45.9961 6.0272 45.6523 6.25847 45.3471C6.48694 45.0454 6.44169 45.2291 6.66903 44.9021L9.36674 40.3463C9.47128 39.8637 8.61475 35.6307 8.58581 34.6669C8.53017 32.8104 8.90026 27.6057 9.93129 26.4135C10.3539 27.0602 10.3447 29.3065 10.7448 30.2732C10.8761 28.9899 10.8066 27.6031 10.9008 26.2985C10.966 25.3938 10.8873 25.3563 11.4133 24.833C11.7612 24.4869 12.0372 24.1501 12.3831 23.8066C13.073 23.1209 15.5636 20.4861 16.8818 20.3308C17.5624 21.1713 17.6021 22.6402 17.7437 23.96L17.8263 23.808C17.8443 23.7656 17.8592 23.7308 17.8718 23.7025C18.0449 23.3099 17.7496 24.1263 17.8718 23.7025C17.876 23.6879 17.8808 23.6717 17.8862 23.654C18.2467 22.4391 17.6748 19.9943 19.4862 18.5427C20.8194 17.4745 22.275 16.5858 23.695 15.6155C24.2873 15.2105 26.0428 13.9791 26.6335 13.757C26.3449 15.3345 25.016 17.6001 24.7094 19.2755C25.0472 18.8293 25.2883 18.0354 25.526 17.4414C25.7997 16.7577 26.0515 16.302 26.3944 15.6455C27.1503 14.1984 27.2531 13.4401 28.518 12.5402C29.232 12.0323 34.1154 8.77919 34.9829 8.43565C34.9818 9.31007 34.4847 9.74923 34.3279 10.5045C34.7811 9.98649 35.0054 9.54255 35.3999 8.86052C35.8864 8.01976 35.9389 8.01275 36.8544 7.55647C37.5055 7.23201 40.0597 6.032 40.7234 6.12118C40.9724 7.12123 39.7767 8.83864 39.4816 9.74194C40.7785 8.31927 42.2035 6.26421 44.0663 5.34605C45.2224 4.77648 49.564 3.22536 50.9036 3.06439C50.8157 3.57816 50.1991 4.44331 49.8799 4.78405C51.0548 4.26579 51.6685 3.06719 52.9842 2.64962C54.0571 2.30945 56.181 1.73455 57.3025 1.63078C57.178 2.52258 56.6435 2.65915 56.2886 3.31174C56.9704 3.08711 58.2403 2.2915 58.8309 1.93226C59.817 1.33239 60.218 1.05364 61.5857 0.888178C65.1371 0.457983 68.6753 0.0608806 72.2624 0.211757C74.0677 0.287756 72.1146 1.4858 71.6524 1.80157C69.4147 3.33081 69.1216 3.15021 66.8243 3.63172L66.1361 3.84261C66.1237 3.82158 66.0886 3.86673 66.0678 3.89393L69.064 3.49515C68.7453 3.9503 67.3824 4.66851 66.7642 5.09534C66.0541 5.58582 65.2346 6.22074 64.3109 6.54857C62.3683 7.23846 60.0848 7.14255 58.0815 7.64537L63.6958 7.15068C63.4471 7.5977 61.7062 8.70235 61.1914 9.03551C59.5228 10.1149 57.6951 11.7462 55.6285 12.0474C54.6914 12.1843 52.8766 12.1941 52.0428 12.4513C52.0251 12.4569 51.9821 12.5026 51.9695 12.4807C51.9566 12.4586 51.9195 12.4989 51.8967 12.5141L55.0657 12.5477C54.9285 12.843 54.713 12.8969 54.3792 13.0722L52.1094 14.5119C51.1405 15.153 50.187 15.807 49.1858 16.44C48.0353 17.1671 47.2802 17.942 45.8283 18.0435C44.4375 18.1408 42.3271 17.9925 41.1045 18.1826C42.0175 18.253 44.809 18.4527 45.4733 18.7931C45.3522 19.1824 44.3527 20.0307 43.9604 20.3482C39.841 23.682 41.7626 22.4694 37.4878 22.9204C37.9796 23.1632 39.1008 23.456 39.4839 23.8296C38.5616 24.7676 37.4482 25.4603 36.5068 26.4043C36.3309 26.5804 35.7537 27.0728 35.514 27.2198C34.843 27.6309 30.1596 27.6505 28.9063 27.8696C30.3403 28.1988 32.7233 27.9554 34.3565 28.1623C34.3166 28.4145 32.8267 30.0693 32.5609 30.3543C31.9114 31.0509 31.2308 31.5147 29.887 31.7839C28.8363 31.9946 23.5025 32.8737 23.0076 33.1135L30.2046 32.4923C29.914 33.0285 28.1909 34.7524 27.5982 35.3786C26.8482 36.1709 25.6278 37.6395 24.9171 38.2161C21.009 41.3862 19.5155 39.6121 15.9958 39.8547L19.3351 41.0808C17.9618 41.2345 16.4929 41.3523 15.1589 41.4546C14.4185 41.5116 13.6974 41.571 12.9839 41.6173C11.915 41.6866 12.1167 41.7132 11.6148 42.4238C11.0683 43.1981 9.55165 45.3011 9.11327 46.2078C8.86991 46.7112 9.15907 46.2978 9.11889 46.7087C9.11243 46.7754 9.0877 46.8284 9.05707 46.8896C8.8938 47.2137 8.56249 47.5396 8.41467 47.8843C9.05482 48.2511 8.79516 48.5133 8.39388 49.0041L7.73407 48.8882C7.57305 49.4531 6.03198 53.1178 5.73102 53.564C5.26032 54.2623 3.85021 53.7054 1.86879 56.2919C1.89465 56.2907 1.92078 56.2896 1.9472 56.2882L1.94776 56.2893Z" fill="white"/>
<path fill-rule="evenodd" clip-rule="evenodd" d="M1.94777 56.2893L1.74854 56.4029C3.02658 56.5344 8.0519 56.5308 8.21742 56.5353C10.5237 56.5978 12.8533 56.6432 15.1722 56.6682C24.148 56.7652 33.6689 57.5064 42.5893 56.6789C46.3802 56.3272 51.5988 55.8381 52.8092 52.8464C55.6333 45.8651 39.4544 44.8325 33.9213 48.3411C31.8887 49.63 32.2023 51.238 34.5482 52.0923C40.1353 54.1263 51.2464 51.6071 46.8607 49.9862C46.2891 49.775 44.6699 49.3863 44.0332 49.4449C44.7408 49.5638 47.0664 50.1985 47.3505 50.8174C46.8065 51.652 43.6597 51.9198 42.41 52.0533C39.8978 52.3217 36.5307 52.4075 34.2464 51.1615C31.2393 49.5217 36.7805 47.8809 38.2396 47.608C41.705 46.9599 46.1815 47.156 49.2195 48.3767C50.5476 48.9104 52.278 49.9214 52.0622 51.6399C51.8467 53.3559 50.4 54.0517 48.7943 54.5405C42.7964 56.3664 32.2571 55.9163 25.5471 55.8474C18.5848 55.7758 11.537 55.2228 4.5994 55.9161C3.7381 56.0022 2.71156 56.2467 1.94749 56.289L1.94777 56.2893Z" fill="white"/>
<path fill-rule="evenodd" clip-rule="evenodd" d="M7.29797 45.565L7.99376 45.9341L10.2702 42.3187C11.0773 41.0665 11.8757 39.9316 12.7148 38.7705C14.921 35.718 15.8573 34.8264 18.1093 32.1847L21.02 29.1021C22.9135 27.2296 25.0975 24.8773 27.0239 23.12C29.211 21.125 34.501 16.7972 36.9416 15.1505C39.2962 13.5615 41.6705 12.0704 44.4817 10.7016C50.0719 7.97994 51.5792 7.38484 57.0823 5.31772L61.4121 3.73212C59.9227 3.85102 54.1153 6.00817 52.411 6.64308C43.1025 10.1102 37.0987 13.9743 29.7131 20.0055C29.1534 20.4623 28.6534 20.8894 28.0909 21.3328C26.0445 22.9445 23.6984 25.2365 21.8951 27.123L17.5035 31.7663C15.9958 33.3115 13.3296 36.4796 12.0361 38.2871C11.2091 39.4425 10.4138 40.6144 9.59609 41.836C8.85815 42.9384 7.89259 44.3255 7.29797 45.565Z" fill="#353535"/>
<path fill-rule="evenodd" clip-rule="evenodd" d="M4.5741 53.8333C5.42247 53.7545 5.37667 53.5792 5.64391 52.9056C5.82713 52.444 6.02271 51.9526 6.21183 51.4781C6.4254 50.9419 7.33054 48.9946 7.17345 48.6513C6.78987 48.6148 6.88373 48.5963 6.67269 49.0877L5.7906 51.0527C5.4517 51.8034 4.75394 53.0772 4.57438 53.833L4.5741 53.8333Z" fill="white"/>
</g>
<defs>
<clipPath id="clip0_52_701">
<rect width="72.0749" height="56.8872" fill="white" transform="translate(0.939453 0.17923)"/>
</clipPath>
</defs>
</svg>
