<svg width="40" height="40" viewBox="0 0 40 40" fill="none" xmlns="http://www.w3.org/2000/svg">
<rect width="40" height="40" rx="20" fill="white"/>
<path fill-rule="evenodd" clip-rule="evenodd" d="M15.8757 10.2074C16.9149 10.1596 17.2463 10.1489 19.8936 10.1489C22.5408 10.1489 22.8722 10.1604 23.9105 10.2074C24.9489 10.2544 25.6577 10.42 26.2778 10.6601C26.9272 10.9055 27.5164 11.2892 28.0037 11.7853C28.4998 12.2717 28.8826 12.86 29.1271 13.5103C29.3681 14.1305 29.5329 14.8392 29.5807 15.8758C29.6285 16.9168 29.6392 17.2482 29.6392 19.8945C29.6392 22.5418 29.6277 22.8732 29.5807 23.9124C29.5337 24.949 29.3681 25.6577 29.1271 26.2779C28.8826 26.9283 28.4992 27.5176 28.0037 28.0047C27.5164 28.5008 26.9272 28.8835 26.2778 29.1281C25.6577 29.3691 24.9489 29.5338 23.9123 29.5817C22.8722 29.6295 22.5408 29.6402 19.8936 29.6402C17.2463 29.6402 16.9149 29.6286 15.8757 29.5817C14.8391 29.5347 14.1304 29.3691 13.5102 29.1281C12.8598 28.8835 12.2706 28.5001 11.7834 28.0047C11.2876 27.518 10.904 26.929 10.6592 26.2788C10.4191 25.6586 10.2543 24.9499 10.2064 23.9133C10.1586 22.8723 10.1479 22.5409 10.1479 19.8945C10.1479 17.2473 10.1595 16.9159 10.2064 15.8776C10.2534 14.8392 10.4191 14.1305 10.6592 13.5103C10.9043 12.8601 11.2883 12.2711 11.7843 11.7844C12.2708 11.2887 12.8594 10.905 13.5093 10.6601C14.1295 10.42 14.8382 10.2552 15.8748 10.2074H15.8757ZM23.8317 11.9616C22.804 11.9147 22.4956 11.9049 19.8936 11.9049C17.2915 11.9049 16.9832 11.9147 15.9554 11.9616C15.0048 12.005 14.4892 12.1636 14.1454 12.2974C13.6909 12.4746 13.3658 12.6846 13.0247 13.0257C12.7013 13.3402 12.4525 13.7232 12.2964 14.1464C12.1626 14.4902 12.004 15.0058 11.9606 15.9564C11.9137 16.9841 11.9039 17.2925 11.9039 19.8945C11.9039 22.4966 11.9137 22.8049 11.9606 23.8327C12.004 24.7833 12.1626 25.2989 12.2964 25.6427C12.4523 26.0653 12.7013 26.4489 13.0247 26.7634C13.3392 27.0868 13.7228 27.3358 14.1454 27.4917C14.4892 27.6255 15.0048 27.7841 15.9554 27.8275C16.9832 27.8744 17.2906 27.8842 19.8936 27.8842C22.4965 27.8842 22.804 27.8744 23.8317 27.8275C24.7823 27.7841 25.298 27.6255 25.6417 27.4917C26.0962 27.3145 26.4214 27.1045 26.7625 26.7634C27.0858 26.4489 27.3348 26.0653 27.4907 25.6427C27.6245 25.2989 27.7831 24.7833 27.8265 23.8327C27.8735 22.8049 27.8832 22.4966 27.8832 19.8945C27.8832 17.2925 27.8735 16.9841 27.8265 15.9564C27.7831 15.0058 27.6245 14.4902 27.4907 14.1464C27.3135 13.6919 27.1035 13.3668 26.7625 13.0257C26.4479 12.7023 26.0649 12.4535 25.6417 12.2974C25.298 12.1636 24.7823 12.005 23.8317 11.9616V11.9616ZM18.6488 22.8988C19.344 23.1882 20.118 23.2273 20.8388 23.0093C21.5596 22.7914 22.1824 22.33 22.6007 21.7039C23.0191 21.0778 23.2071 20.3259 23.1327 19.5766C23.0583 18.8273 22.726 18.127 22.1926 17.5955C21.8526 17.2557 21.4415 16.9955 20.9889 16.8337C20.5363 16.6718 20.0534 16.6124 19.5751 16.6595C19.0967 16.7067 18.6347 16.8594 18.2225 17.1065C17.8102 17.3537 17.4578 17.6891 17.1908 18.0888C16.9237 18.4885 16.7486 18.9424 16.678 19.4179C16.6074 19.8933 16.6431 20.3785 16.7825 20.8386C16.922 21.2986 17.1617 21.7219 17.4844 22.0782C17.8071 22.4345 18.2048 22.7147 18.6488 22.8988ZM16.3515 16.3525C16.8166 15.8873 17.3688 15.5183 17.9766 15.2666C18.5844 15.0148 19.2357 14.8853 19.8936 14.8853C20.5514 14.8853 21.2028 15.0148 21.8105 15.2666C22.4183 15.5183 22.9705 15.8873 23.4357 16.3525C23.9008 16.8176 24.2698 17.3698 24.5215 17.9776C24.7733 18.5853 24.9028 19.2367 24.9028 19.8945C24.9028 20.5524 24.7733 21.2038 24.5215 21.8115C24.2698 22.4193 23.9008 22.9715 23.4357 23.4366C22.4962 24.3761 21.2221 24.9038 19.8936 24.9038C18.565 24.9038 17.2909 24.3761 16.3515 23.4366C15.4121 22.4972 14.8843 21.2231 14.8843 19.8945C14.8843 18.566 15.4121 17.2919 16.3515 16.3525V16.3525ZM26.0138 15.6313C26.1291 15.5225 26.2214 15.3918 26.2852 15.2467C26.349 15.1017 26.3831 14.9453 26.3854 14.7869C26.3877 14.6284 26.3582 14.4711 26.2986 14.3243C26.2391 14.1775 26.1506 14.0441 26.0386 13.932C25.9265 13.82 25.7931 13.7316 25.6463 13.672C25.4995 13.6124 25.3422 13.5829 25.1837 13.5852C25.0253 13.5875 24.8689 13.6216 24.7239 13.6854C24.5788 13.7493 24.4481 13.8415 24.3393 13.9568C24.1279 14.181 24.0121 14.4787 24.0166 14.7869C24.0211 15.095 24.1455 15.3893 24.3634 15.6072C24.5813 15.8251 24.8756 15.9495 25.1837 15.954C25.4919 15.9585 25.7896 15.8427 26.0138 15.6313V15.6313Z" fill="#4F4F4F"/>
</svg>
